<?xml version="1.0" standalone="no"?>
<!DOCTYPE svg PUBLIC "-//W3C//DTD SVG 20010904//EN"
 "http://www.w3.org/TR/2001/REC-SVG-20010904/DTD/svg10.dtd">
<svg version="1.0" xmlns="http://www.w3.org/2000/svg"
 width="225.000000pt" height="225.000000pt" viewBox="0 0 225.000000 225.000000"
 preserveAspectRatio="xMidYMid meet">

<g transform="translate(0.000000,225.000000) scale(0.100000,-0.100000)"
fill="#000000" stroke="none">
<path d="M1074 2147 c-35 -20 -425 -400 -440 -429 -22 -42 -20 -617 2 -663 31
-65 35 -66 503 -63 l421 3 32 33 33 32 3 312 c2 214 -1 320 -8 339 -12 28
-409 417 -447 437 -28 15 -72 15 -99 -1z m279 -258 l207 -201 0 -298 c0 -258
-2 -301 -16 -314 -13 -14 -66 -16 -423 -16 -303 0 -410 3 -419 12 -9 9 -12 92
-12 314 l0 302 206 201 c138 135 213 201 228 201 14 0 90 -67 229 -201z"/>
<path d="M1102 1798 c-7 -7 -12 -27 -12 -45 0 -24 -5 -33 -16 -33 -56 0 -114
-61 -114 -120 0 -80 56 -120 167 -120 74 0 93 -10 93 -46 0 -42 -25 -54 -110
-54 -75 0 -78 1 -84 26 -5 20 -12 25 -34 22 -71 -8 -13 -118 62 -118 34 0 36
-2 36 -34 0 -70 62 -73 68 -3 3 31 7 36 37 41 48 9 95 66 95 114 -1 82 -52
122 -153 122 -84 0 -107 11 -107 50 0 40 23 50 112 50 66 0 74 -2 83 -22 7
-15 19 -23 35 -23 20 0 26 6 28 28 5 40 -45 87 -92 87 -34 0 -36 2 -36 33 0
33 -15 57 -35 57 -6 0 -16 -5 -23 -12z"/>
<path d="M162 1033 c-73 -35 -103 -133 -64 -209 23 -46 708 -676 768 -707 55
-28 131 -33 195 -12 30 10 173 62 318 117 145 55 285 102 310 105 26 3 72 0
104 -7 53 -11 57 -13 57 -39 0 -16 9 -40 21 -55 20 -25 23 -26 140 -26 174 0
159 -40 159 409 l0 370 -26 20 c-23 18 -41 21 -136 21 -102 0 -110 -1 -133
-25 -16 -15 -25 -35 -25 -56 0 -29 -2 -31 -27 -25 -16 4 -78 10 -139 13 -156
8 -217 -10 -490 -142 l-221 -107 -294 160 c-162 88 -317 171 -346 186 -60 30
-122 34 -171 9z m418 -220 c168 -91 307 -167 309 -169 2 -2 -8 -14 -24 -26
-32 -25 -55 -74 -55 -118 0 -44 36 -108 73 -130 66 -41 98 -32 387 110 146 71
269 136 274 143 13 20 0 47 -22 47 -11 0 -135 -56 -276 -125 -153 -74 -270
-125 -287 -125 -67 0 -102 83 -56 134 28 32 543 280 617 297 70 16 222 14 280
-3 l45 -14 3 -227 2 -227 -42 7 c-116 21 -155 12 -481 -111 -327 -124 -362
-132 -428 -98 -40 21 -733 652 -743 677 -9 25 -7 64 5 86 13 26 67 50 94 42
11 -3 157 -79 325 -170z m1520 -202 l0 -338 -80 -7 c-44 -4 -84 -5 -90 -1 -6
4 -10 127 -10 346 l0 339 90 0 90 0 0 -339z"/>
<path d="M1532 478 c-16 -16 -15 -33 3 -48 24 -20 67 3 63 33 -3 25 -45 36
-66 15z"/>
<path d="M1367 418 c-42 -18 -48 -24 -45 -47 4 -34 31 -38 91 -12 52 22 66 43
47 66 -16 19 -34 18 -93 -7z"/>
</g>
</svg>
